<svg xmlns="http://www.w3.org/2000/svg" viewBox="0 0 512 512"><path d="M358.414 21.311c-7.591-3.318-16.434.149-19.751 7.739s.148 16.434 7.739 19.751C428.771 84.795 481.996 166.123 482 255.996c0 89.878-53.228 171.209-135.605 207.202-7.591 3.316-11.056 12.159-7.739 19.751 2.462 5.637 7.972 8.998 13.753 8.998 2.005 0 4.043-.404 5.998-1.259C451.71 449.921 512 357.799 512 255.995c-.004-101.797-60.29-193.916-153.586-234.684z"/><path d="M362.413 137.053c-6.172-5.525-15.655-5.001-21.181 1.171-5.525 6.173-5.001 15.655 1.171 21.181 27.452 24.575 43.196 59.782 43.196 96.594 0 36.811-15.745 72.019-43.196 96.594-6.172 5.525-6.697 15.008-1.171 21.181a14.964 14.964 0 0011.181 4.995c3.562 0 7.137-1.261 10-3.824 33.801-30.258 53.186-73.613 53.186-118.947 0-45.333-19.386-88.688-53.186-118.945zM262.78 57.852a15 15 0 00-15.65 1.284l-116.54 85.461H15c-8.284 0-15 6.716-15 15v192.801c0 8.284 6.716 15 15 15h115.589l116.54 85.463a14.987 14.987 0 008.872 2.904 15 15 0 0014.999-15V71.23a14.996 14.996 0 00-8.22-13.378zm-21.781 353.31l-96.629-70.861a14.999 14.999 0 00-8.871-2.904H30v-162.8h105.499c3.19 0 6.298-1.018 8.87-2.903l96.63-70.861v310.329z"/></svg>